<svg width="26" height="21" viewBox="0 0 26 21" fill="none" xmlns="http://www.w3.org/2000/svg">
<path d="M22.5748 5.60747C22.5907 5.82981 22.5907 6.0522 22.5907 6.27454C22.5907 13.0563 17.429 20.8704 7.99484 20.8704C5.08836 20.8704 2.38837 20.0286 0.117188 18.5675C0.530144 18.6151 0.927163 18.631 1.35601 18.631C3.75421 18.631 5.96189 17.821 7.72483 16.4393C5.46954 16.3916 3.57953 14.9146 2.92834 12.8816C3.24602 12.9292 3.56364 12.961 3.8972 12.961C4.35778 12.961 4.8184 12.8974 5.24719 12.7863C2.89661 12.3098 1.13362 10.2451 1.13362 7.7516V7.68809C1.81653 8.06927 2.61072 8.3075 3.45242 8.33923C2.07065 7.41803 1.16539 5.8457 1.16539 4.06686C1.16539 3.11394 1.41946 2.24041 1.8642 1.47805C4.3895 4.59099 8.18541 6.6239 12.4418 6.84629C12.3624 6.46511 12.3148 6.06809 12.3148 5.67102C12.3148 2.84393 14.6019 0.541016 17.4448 0.541016C18.9218 0.541016 20.2559 1.16043 21.193 2.16102C22.3524 1.93867 23.4642 1.50983 24.4489 0.922195C24.0677 2.1134 23.2577 3.11399 22.1936 3.74924C23.226 3.63812 24.2266 3.35217 25.1477 2.95515C24.449 3.97158 23.5754 4.87684 22.5748 5.60747Z" fill="white"/>
</svg>
