<svg width="25" height="27" viewBox="0 0 25 27" fill="none" xmlns="http://www.w3.org/2000/svg">
<circle cx="12.4342" cy="12.4342" r="12.4342" fill="#AFDB00"/>
<path d="M21.1428 21.1756C20.0391 19.9798 18.6998 19.0255 17.2092 18.3728C15.7186 17.7201 14.1089 17.3831 12.4817 17.3831C10.8544 17.3831 9.2448 17.7201 7.75419 18.3728C6.26357 19.0255 4.92426 19.9798 3.8206 21.1756C3.65021 21.364 3.55489 21.6084 3.55273 21.8624V25.9834C3.55635 26.2543 3.66648 26.5128 3.85931 26.7031C4.05213 26.8933 4.31212 27 4.583 27H20.3804C20.6536 27 20.9157 26.8914 21.1089 26.6982C21.3021 26.505 21.4106 26.243 21.4106 25.9697V21.8487C21.4051 21.5994 21.3101 21.3604 21.1428 21.1756Z" fill="#424B54"/>
<path d="M12.4817 16.0105C15.137 16.0105 17.2896 13.858 17.2896 11.2026C17.2896 8.54731 15.137 6.39474 12.4817 6.39474C9.8264 6.39474 7.67383 8.54731 7.67383 11.2026C7.67383 13.858 9.8264 16.0105 12.4817 16.0105Z" fill="#424B54"/>
</svg>
