<svg width="26" height="18" viewBox="0 0 26 18" fill="none" xmlns="http://www.w3.org/2000/svg">
<path d="M24.7702 2.78326C24.4793 1.68771 23.622 0.824883 22.5335 0.532072C20.5606 0 12.6494 0 12.6494 0C12.6494 0 4.73829 0 2.76533 0.532072C1.67687 0.824929 0.819602 1.68771 0.528644 2.78326C0 4.76901 0 8.91209 0 8.91209C0 8.91209 0 13.0552 0.528644 15.0409C0.819602 16.1365 1.67687 16.9634 2.76533 17.2562C4.73829 17.7882 12.6494 17.7882 12.6494 17.7882C12.6494 17.7882 20.5606 17.7882 22.5335 17.2562C23.622 16.9634 24.4793 16.1365 24.7702 15.0409C25.2989 13.0552 25.2989 8.91209 25.2989 8.91209C25.2989 8.91209 25.2989 4.76901 24.7702 2.78326ZM10.062 12.6737V5.15048L16.6742 8.91218L10.062 12.6737Z" fill="white"/>
</svg>
