<svg width="90" height="21" viewBox="0 0 90 21" fill="none" xmlns="http://www.w3.org/2000/svg">
<path d="M28.0802 8.456H22.7882C22.7882 8.15733 22.7322 7.868 22.6202 7.588C22.5082 7.308 22.3402 7.06533 22.1162 6.86C21.8922 6.636 21.6122 6.45867 21.2762 6.328C20.9589 6.19733 20.5856 6.132 20.1562 6.132H8.81623C8.40557 6.132 8.0229 6.20667 7.66824 6.356C7.33224 6.48667 7.03357 6.68267 6.77224 6.944C6.5109 7.20533 6.30557 7.51333 6.15623 7.868C6.0069 8.22267 5.93223 8.60533 5.93223 9.016V12.852C5.93223 13.2627 6.0069 13.6453 6.15623 14C6.30557 14.336 6.5109 14.6347 6.77224 14.896C7.03357 15.1573 7.33224 15.3627 7.66824 15.512C8.0229 15.6427 8.40557 15.708 8.81623 15.708H20.1562C20.4922 15.708 20.8189 15.6427 21.1362 15.512C21.4722 15.3627 21.7522 15.176 21.9762 14.952C22.2189 14.728 22.4149 14.4667 22.5642 14.168C22.7136 13.8693 22.7882 13.5613 22.7882 13.244H28.0802V13.804C28.0802 14.6813 27.9216 15.5493 27.6042 16.408C27.2869 17.2667 26.8389 18.0413 26.2602 18.732C25.7002 19.404 25.0189 19.9547 24.2162 20.384C23.4136 20.7947 22.5269 21 21.5562 21H6.91223C6.05357 21 5.24157 20.8413 4.47623 20.524C3.7109 20.188 3.0389 19.74 2.46023 19.18C1.90023 18.6013 1.45223 17.9293 1.11623 17.164C0.798901 16.3987 0.640234 15.5867 0.640234 14.728V7.112C0.640234 6.23467 0.798901 5.42267 1.11623 4.676C1.45223 3.91067 1.90023 3.248 2.46023 2.688C3.0389 2.10933 3.7109 1.66133 4.47623 1.344C5.24157 1.008 6.05357 0.839999 6.91223 0.839999H21.5562C22.5269 0.839999 23.4136 1.05467 24.2162 1.484C25.0189 1.89467 25.7002 2.436 26.2602 3.108C26.8389 3.78 27.2869 4.536 27.6042 5.376C27.9216 6.216 28.0802 7.056 28.0802 7.896V8.456ZM54.129 13.048H59.393V17.304H54.129V21H48.837V17.304H30.609V13.048L48.837 0.839999H54.129V13.048ZM48.837 6.44L39.261 13.048H48.837V6.44ZM89.3576 8.456H84.0656C84.0656 8.15733 84.0096 7.868 83.8976 7.588C83.7856 7.308 83.6176 7.06533 83.3936 6.86C83.1696 6.636 82.8896 6.45867 82.5536 6.328C82.2362 6.19733 81.8629 6.132 81.4336 6.132H70.0936C69.6829 6.132 69.3002 6.20667 68.9456 6.356C68.6096 6.48667 68.3109 6.68267 68.0496 6.944C67.7882 7.20533 67.5829 7.51333 67.4336 7.868C67.2842 8.22267 67.2096 8.60533 67.2096 9.016V12.852C67.2096 13.2627 67.2842 13.6453 67.4336 14C67.5829 14.336 67.7882 14.6347 68.0496 14.896C68.3109 15.1573 68.6096 15.3627 68.9456 15.512C69.3002 15.6427 69.6829 15.708 70.0936 15.708H81.4336C81.7696 15.708 82.0962 15.6427 82.4136 15.512C82.7496 15.3627 83.0296 15.176 83.2536 14.952C83.4962 14.728 83.6922 14.4667 83.8416 14.168C83.9909 13.8693 84.0656 13.5613 84.0656 13.244H89.3576V13.804C89.3576 14.6813 89.1989 15.5493 88.8816 16.408C88.5642 17.2667 88.1162 18.0413 87.5376 18.732C86.9776 19.404 86.2962 19.9547 85.4936 20.384C84.6909 20.7947 83.8042 21 82.8336 21H68.1896C67.3309 21 66.5189 20.8413 65.7536 20.524C64.9882 20.188 64.3162 19.74 63.7376 19.18C63.1776 18.6013 62.7296 17.9293 62.3936 17.164C62.0762 16.3987 61.9176 15.5867 61.9176 14.728V7.112C61.9176 6.23467 62.0762 5.42267 62.3936 4.676C62.7296 3.91067 63.1776 3.248 63.7376 2.688C64.3162 2.10933 64.9882 1.66133 65.7536 1.344C66.5189 1.008 67.3309 0.839999 68.1896 0.839999H82.8336C83.8042 0.839999 84.6909 1.05467 85.4936 1.484C86.2962 1.89467 86.9776 2.436 87.5376 3.108C88.1162 3.78 88.5642 4.536 88.8816 5.376C89.1989 6.216 89.3576 7.056 89.3576 7.896V8.456Z" fill="#AFDB00"/>
</svg>
